<?xml version="1.0" standalone="no"?>
<!DOCTYPE svg PUBLIC "-//W3C//DTD SVG 20010904//EN"
 "http://www.w3.org/TR/2001/REC-SVG-20010904/DTD/svg10.dtd">
<svg version="1.0" xmlns="http://www.w3.org/2000/svg"
 width="250.000000pt" height="250.000000pt" viewBox="0 0 250.000000 250.000000"
 preserveAspectRatio="xMidYMid meet">
<metadata>
Created by potrace 1.11, written by Peter Selinger 2001-2013
</metadata>
<g transform="translate(0.000000,250.000000) scale(0.100000,-0.100000)"
fill="#000000" stroke="none">
<path d="M296 2385 c-56 -20 -107 -65 -136 -121 l-25 -48 0 -946 0 -945 30
-54 c32 -58 90 -103 155 -121 54 -15 1838 -13 1898 2 63 16 143 94 160 158 10
35 12 262 10 980 l-3 935 -22 41 c-12 22 -37 55 -57 71 -33 30 -102 60 -112
50 -3 -3 8 -8 24 -12 42 -9 111 -71 133 -119 18 -39 19 -89 19 -982 l0 -942
-28 -53 c-20 -39 -41 -62 -77 -84 l-48 -30 -934 -3 c-643 -2 -947 1 -974 8
-50 14 -117 73 -140 125 -18 38 -19 92 -19 976 l0 935 28 55 c18 35 42 64 70
84 l44 30 818 5 c450 3 822 8 826 13 4 4 -355 7 -797 7 -657 -1 -811 -3 -843
-15z"/>
<path d="M483 2209 c-24 -6 -60 -26 -86 -50 -82 -71 -78 -23 -75 -906 l3 -781
30 -44 c20 -28 49 -52 84 -70 l55 -28 759 0 c548 0 770 3 798 12 22 6 57 26
78 44 74 64 71 23 72 887 1 852 4 811 -62 876 -69 69 -23 66 -859 68 -448 1
-772 -3 -797 -8z m908 -181 c4 -7 8 -115 9 -240 l0 -228 -137 2 -138 3 -3 230
c-1 126 -1 234 2 240 6 16 257 10 267 -7z m-443 -350 l3 -128 -117 0 c-65 0
-115 -3 -112 -6 4 -3 94 -5 202 -4 l196 1 10 -26 c6 -15 10 -78 10 -141 l0
-114 125 0 125 0 0 25 c0 24 2 25 72 25 39 0 68 3 65 7 -4 4 -31 6 -60 4 -73
-3 -78 6 -75 120 l3 94 185 0 185 0 0 -105 0 -105 -62 0 c-35 0 -63 -3 -63 -7
0 -5 89 -8 199 -8 198 0 199 0 205 -22 3 -13 6 -193 6 -400 l0 -378 -224 0
c-123 0 -231 3 -240 6 -14 5 -16 43 -16 315 l0 309 -80 0 -80 0 0 -135 0 -136
-142 3 -143 3 -3 133 -3 132 -84 0 -85 0 0 -135 0 -135 -133 0 c-90 0 -137 4
-145 12 -7 7 -12 38 -12 70 l0 57 -87 3 -88 3 0 260 0 260 63 1 c80 2 95 14
16 14 -33 0 -65 5 -72 12 -8 8 -12 52 -12 130 l0 118 233 -2 232 -3 3 -127z
m1097 100 c3 -18 5 -127 3 -243 l-3 -210 -109 -3 c-71 -2 -113 1 -122 9 -10 8
-14 39 -14 115 l0 104 -103 0 c-67 0 -107 4 -115 12 -8 8 -12 52 -12 130 l0
118 235 0 234 0 6 -32z m-1415 -948 l0 -160 160 0 160 0 0 -80 0 -80 -232 2
-233 3 -3 238 -2 237 75 0 75 0 0 -160z m320 -60 l0 -80 -129 0 c-71 0 -136 3
-145 6 -13 5 -16 22 -16 80 l0 74 145 0 145 0 0 -80z"/>
</g>
</svg>
